<svg version="1" xmlns="http://www.w3.org/2000/svg" width="1678.667" height="370.667" viewBox="0 0 1259.000000 278.000000"><path d="M47.2 37.7c-1.2 7.1-9.2 53-17.7 102.1C21 189 14 230.1 14 231.1c0 1.9.9 1.9 27.3 1.7l27.2-.3 1.7-11.5c9.7-63.9 13.6-88.3 14.1-87 .3.8 2.9 15.2 5.7 32 2.8 16.8 6.4 38.2 8.1 47.7 1.6 9.5 2.9 17.7 2.9 18.3 0 .7 9.9.9 32.2.8l32.3-.3 1.7-9.5c.9-5.2 4.2-23.9 7.3-41.5 3-17.6 10.2-59.2 16-92.4 5.8-33.3 10.5-61.3 10.5-62.3 0-1.7-1.5-1.8-26.4-1.8h-26.3l-1.2 7.2c-.6 4-4.2 27.3-8.1 51.7-6 38.3-8 49.4-8 44.3 0-1.4-14.7-96.2-15.6-100.5l-.6-2.7H49.3l-2.1 12.7zm159.4 72.5c-8.1 46.9-16.1 92.7-17.7 101.8-1.6 9.1-2.9 17.5-2.9 18.8v2.2l56.2-.2 56.3-.3 1.2-6c2.6-12.9 8.4-47.8 8-48.2-.3-.2-12.5-.4-27.1-.3-14.6 0-26.6-.3-26.6-.7 0-.5.9-5.7 2-11.7 1.1-6 2-11.3 2-11.8 0-.4 10.1-.8 22.5-.8s22.5-.1 22.5-.3c3.1-15.9 8.6-49.8 8.2-50.2-.3-.3-10.4-.5-22.4-.5-12.1 0-21.8-.4-21.8-.9s.9-5.3 2-10.6 2-9.9 2-10.1c0-.2 11-.4 24.5-.4 15 0 24.5-.4 24.5-1 0-.5 2-12.4 4.5-26.4 2.5-14.1 4.5-26 4.5-26.6 0-.7-18-1-53.8-1h-53.8l-14.8 85.2zM333 129v104h63.7l4.8-13.8c11.3-32.9 29.6-85.5 32.8-94.7l3.6-10v59.3l.1 59.2 30.7-.2 30.6-.3 16.4-45c9-24.8 24.2-66.8 33.9-93.5 9.6-26.7 19.1-52.7 21-57.8 1.9-5.1 3.4-9.7 3.4-10.2 0-.6-11.1-1-29.9-1h-29.8l-3.2 10.7c-1.7 6-9.9 33.7-18.1 61.8l-15 51 .5-18.5c.3-10.2.8-24.6 1-32 1.3-32.3 2.5-66.8 2.5-69.8V25h-55.8l-1 3.7c-1.5 5.5-6.1 20.7-14 46.8-3.9 12.6-10.5 34.2-14.6 47.9-4.2 13.7-7.9 25.2-8.2 25.5-.6.6-.4-2.8 3.5-74.7 1.5-26.6 2.4-48.5 2.2-48.8-.2-.2-14.1-.4-30.8-.4H333v104zM580.5 26.2c-.3.7-3.9 20.9-8 44.8-4.2 23.9-11.9 68.2-17.1 98.5-5.3 30.2-9.9 56.9-10.1 59.3l-.6 4.3 46.9-.4c44.2-.3 47.4-.5 55.2-2.5 16.3-4.3 31.1-13.1 39.3-23.4 13.6-17.1 17.9-45 9.8-62.4-3.1-6.4-10.1-13.8-16-16.7l-5-2.5 5.9-3.2c3.3-1.7 8.5-5.6 11.5-8.7 10.2-10.1 14.7-22.1 14.7-38.6 0-20.1-8.4-34.4-25-42.5-13.1-6.4-14.4-6.5-59.8-7-33.5-.3-41.3-.1-41.7 1zm68.2 54c3.6 3.6 4.3 11.7 1.5 16.8-3.1 5.7-8.2 8-17.9 8-4.6 0-8.3-.3-8.3-.8 0-.4 1.1-6.7 2.5-14.1 1.4-7.4 2.5-13.5 2.5-13.5 0-.1 3.8.1 8.5.5 7.5.5 8.9.8 11.2 3.1zm-12.6 72.1c5.9 4 7 15 2.2 21.5-4.2 5.6-6.7 6.6-17.3 7-5.5.3-10 0-10-.4 0-.5 1.1-7.2 2.5-14.8 1.4-7.7 2.5-14.4 2.5-14.8 0-.4 3.8-.8 8.4-.8 7 0 8.8.4 11.7 2.3zM737.6 26.2c-.5 1.5-35.7 205-35.6 206 0 .5 13.2.8 29.4.8h29.3l1.6-8.8c.9-4.8 3.6-20.6 6.2-35.2 2.5-14.6 4.8-27.5 5-28.8.4-1.7 1.2-2.2 3.9-2.2 3 0 3.4.3 4 3.2.5 3.1 10.6 70.7 10.6 71.5 0 .1 14.6.3 32.5.3s32.5-.3 32.5-.7c0-.4-4.3-20-9.5-43.5s-9.5-43.1-9.5-43.6c0-.4 2.8-2.3 6.2-4.2 11.9-6.8 20.5-19.2 25-35.7 2.7-10.4 3-30.8.5-40.3-5.3-19.8-18.9-32.8-39.5-37.7-9.3-2.2-92-3.2-92.6-1.1zm63.7 52.2c1.8.7 4 2.2 4.9 3.2 2.5 2.8 3.7 9.4 2.7 15.4-1.6 10.3-8.5 16.6-19.5 17.7-8.6.9-8.4 1.5-5.3-15.9 1.6-8.4 3.1-16.8 3.4-18.6.6-3.1.7-3.2 5.6-3.2 2.7 0 6.4.6 8.2 1.4zm94.2-51.2c-.7 3.3-35.5 203.9-35.5 204.9 0 .5 12.4.9 27.5.9s27.5-.3 27.5-.6c0-1.3 15.1-99.8 15.3-100.1.3-.2 3.3 17.1 13.2 75.7l4.1 24.5 32.1.3 32.1.2 1.1-6.2c7.8-41.7 34.8-200.5 34.2-201.1-.4-.4-12.4-.6-26.6-.5l-25.9.3-8.2 52c-4.5 28.6-8.4 51.3-8.7 50.5-.3-.8-2-11.2-3.8-23-1.8-11.8-5.3-34.6-7.8-50.5l-4.6-29-32.8-.3L896 25l-.5 2.2zm172.1.5c-.7 3.5-35.6 204.2-35.6 205 0 .2 20.1.3 44.8 0 40.8-.4 45.5-.6 53.4-2.5 32.2-7.7 54.6-27 67.7-58.3 12.7-30.3 15.7-72.5 7-99.4-5.8-18.1-16.5-30.9-32.3-38.5-15.3-7.4-21.5-8.2-65.8-8.7l-38.6-.5-.6 2.9zm67.4 54.5c7.8 4.2 11 13.7 11 32.3-.1 29.8-10.7 54.6-26.6 61.6-5.6 2.5-15.4 3.7-15.4 1.8.1-.8 3.8-23 8.4-49.4 8.1-46.9 8.3-48 10.7-48.6 3.3-.9 7.7 0 11.9 2.3zm65 128.8v22h39v-44h-39v22z"/></svg>