<svg xmlns="http://www.w3.org/2000/svg" width="38" height="19" viewBox="0 0 38 19">
    <g fill="#C71D1D" fill-rule="evenodd">
        <path d="M1.171 14.342c0 .444.073.772.219.984.204.301.476.452.814.452.26 0 .482-.107.666-.32.183-.215.275-.551.275-1.011 0-.49-.092-.842-.277-1.06a.891.891 0 0 0-.71-.324.904.904 0 0 0-.705.317c-.188.211-.282.532-.282.962zM0 16.577v-5.914h1.18v2.13c.364-.398.795-.597 1.293-.597.543 0 .992.189 1.348.567.355.378.533.92.533 1.627 0 .732-.181 1.295-.544 1.69-.362.396-.802.593-1.32.593-.255 0-.506-.06-.754-.183a1.78 1.78 0 0 1-.64-.543v.63H0zM7.539 14.16c-.009-.342-.097-.6-.264-.778a.81.81 0 0 0-.612-.266.817.817 0 0 0-.637.28c-.167.188-.25.442-.247.763h1.76zm-.067 1.19l1.172.197c-.15.43-.389.758-.714.983-.325.225-.732.337-1.22.337-.774 0-1.347-.253-1.718-.758-.293-.406-.44-.917-.44-1.535 0-.737.193-1.315.578-1.733.385-.418.873-.627 1.462-.627.662 0 1.184.219 1.567.656.382.438.565 1.108.548 2.01H5.758c.009.35.104.621.285.816a.89.89 0 0 0 .679.291.72.72 0 0 0 .465-.15c.125-.101.22-.264.285-.487zM8.906 15.497l1.182-.18c.05.228.152.403.306.521.153.119.368.178.645.178.304 0 .533-.056.687-.167a.374.374 0 0 0 .155-.315.31.31 0 0 0-.084-.222c-.059-.056-.19-.107-.394-.155-.95-.21-1.551-.4-1.805-.574a1.147 1.147 0 0 1-.528-1.002c0-.386.152-.71.456-.973.305-.262.777-.394 1.416-.394.61 0 1.062.1 1.358.298.296.198.5.492.612.88l-1.11.206a.687.687 0 0 0-.27-.399c-.134-.092-.323-.138-.569-.138-.31 0-.532.043-.666.13a.279.279 0 0 0-.134.239c0 .084.04.155.117.214.107.078.473.188 1.1.33.627.143 1.065.318 1.314.525.245.21.368.502.368.876 0 .408-.17.759-.51 1.052-.341.294-.846.44-1.513.44-.606 0-1.086-.123-1.44-.369a1.7 1.7 0 0 1-.693-1.001M15.739 12.4v.921h-.79v1.761c0 .356.008.564.023.623.015.06.05.108.103.146a.325.325 0 0 0 .195.058c.107 0 .262-.037.465-.111l.098.897a2.294 2.294 0 0 1-.912.172c-.208 0-.396-.035-.563-.105a.822.822 0 0 1-.368-.271 1.072 1.072 0 0 1-.162-.45c-.025-.135-.037-.406-.037-.815V13.32h-.53V12.4h.53v-.868l1.159-.675V12.4h.789zM18.82 14.16c-.009-.342-.096-.6-.264-.778a.81.81 0 0 0-.612-.266.817.817 0 0 0-.636.28c-.168.188-.25.442-.247.763h1.759zm-.067 1.19l1.173.197c-.151.43-.39.758-.714.983-.326.225-.733.337-1.222.337-.773 0-1.346-.253-1.717-.758-.293-.406-.44-.917-.44-1.535 0-.737.193-1.315.578-1.733.386-.418.873-.627 1.462-.627.662 0 1.184.219 1.567.656.382.438.565 1.108.549 2.01h-2.95c.009.35.104.621.286.816a.89.89 0 0 0 .678.291.72.72 0 0 0 .465-.15c.126-.101.22-.264.285-.487zM20.583 16.673h1.188v-6.01h-1.188zM22.563 16.673h1.187v-6.01h-1.188zM24.542 16.673v-6.01h.728v3.428l1.725-1.771h.943l-1.643 1.615 1.81 2.738h-.9l-1.42-2.226-.515.5v1.726zM28.5 16.673h1V12.32h-1v4.353zm0-5.161h1v-.849h-1v.849zM30.083 16.673v-4.36h.669v.62c.322-.48.787-.719 1.395-.719.265 0 .507.047.729.142.221.094.387.218.497.372.11.153.187.335.231.546.028.137.042.376.042.718v2.681h-.743v-2.652c0-.301-.03-.526-.087-.676a.713.713 0 0 0-.307-.357.983.983 0 0 0-.519-.133c-.316 0-.59.1-.819.3-.23.2-.345.579-.345 1.137v2.381h-.743zM34.995 14.439c0 .548.117.958.351 1.23.234.272.51.407.829.407.321 0 .594-.13.819-.389.224-.26.336-.655.336-1.188 0-.586-.114-1.016-.343-1.29-.228-.275-.51-.412-.845-.412-.326 0-.6.132-.818.395-.22.264-.329.68-.329 1.247zm2.323 2.138v-.54c-.275.424-.68.636-1.212.636-.346 0-.664-.094-.954-.282a1.862 1.862 0 0 1-.673-.789 2.697 2.697 0 0 1-.24-1.163c0-.428.073-.816.217-1.164.144-.348.36-.615.65-.8.288-.186.61-.279.967-.279a1.46 1.46 0 0 1 1.196.589v-2.122H38v5.914h-.682zM0 18.321c0 .408.396.679.99.679h21.77c.594 0 .99-.271.99-.679v-.678H0v.678zM11.875 3.296c4.75 0 8.807 2.241 9.698 5.273H2.177c.89-3.032 4.948-5.273 9.698-5.273zm9.896 6.592h1.979c0-4.153-4.75-7.515-10.885-7.845v-.725h.99c.593 0 .989-.263.989-.659 0-.395-.396-.659-.99-.659H9.896c-.594 0-.99.264-.99.66 0 .395.396.658.99.658h.99v.725C4.75 2.373 0 5.735 0 9.888h21.77z"/>
        <path d="M17.294 4.847l-.273.634c1.083.488 1.993 1.263 2.585 2.274l.581-.332c-.606-1.143-1.666-2.037-2.893-2.576"/>
    </g>
</svg>
