<?xml version="1.0" standalone="no"?>
<!DOCTYPE svg PUBLIC "-//W3C//DTD SVG 20010904//EN"
 "http://www.w3.org/TR/2001/REC-SVG-20010904/DTD/svg10.dtd">
<svg version="1.0" xmlns="http://www.w3.org/2000/svg"
 width="1259.000000pt" height="278.000000pt" viewBox="0 0 1259.000000 278.000000"
 preserveAspectRatio="xMidYMid meet">

<g transform="translate(0.000000,278.000000) scale(0.100000,-0.100000)"
fill="#000000" stroke="none">
<path d="M472 2403 c-12 -71 -92 -530 -177 -1021 -85 -492 -155 -903 -155
-913 0 -19 9 -19 273 -17 l272 3 17 115 c97 639 136 883 141 870 3 -8 29 -152
57 -320 28 -168 64 -382 81 -477 16 -95 29 -177 29 -183 0 -7 99 -9 322 -8
l323 3 17 95 c9 52 42 239 73 415 30 176 102 592 160 924 58 333 105 613 105
623 0 17 -15 18 -264 18 l-263 0 -12 -72 c-6 -40 -42 -273 -81 -517 -60 -383
-80 -494 -80 -443 0 14 -147 962 -156 1005 l-6 27 -327 0 -328 0 -21 -127z"/>
<path d="M2066 1678 c-81 -469 -161 -927 -177 -1018 -16 -91 -29 -175 -29
-188 l0 -22 562 2 563 3 12 60 c26 129 84 478 80 482 -3 2 -125 4 -271 3 -146
0 -266 3 -266 7 0 5 9 57 20 117 11 60 20 113 20 118 0 4 101 8 225 8 124 0
225 1 225 3 31 159 86 498 82 502 -3 3 -104 5 -224 5 -121 0 -218 4 -218 9 0
5 9 53 20 106 11 53 20 99 20 101 0 2 110 4 245 4 150 0 245 4 245 10 0 5 20
124 45 264 25 141 45 260 45 266 0 7 -180 10 -538 10 l-538 0 -148 -852z"/>
<path d="M3330 1490 l0 -1040 319 0 318 0 48 138 c113 329 296 855 328 947
l36 100 0 -593 1 -592 307 2 306 3 164 450 c90 248 242 668 339 935 96 267
191 527 210 578 19 51 34 97 34 102 0 6 -111 10 -299 10 l-298 0 -32 -107
c-17 -60 -99 -337 -181 -618 l-150 -510 5 185 c3 102 8 246 10 320 13 323 25
668 25 698 l0 32 -279 0 -279 0 -10 -37 c-15 -55 -61 -207 -140 -468 -39 -126
-105 -342 -146 -479 -42 -137 -79 -252 -82 -255 -6 -6 -4 28 35 747 15 266 24
485 22 488 -2 2 -141 4 -308 4 l-303 0 0 -1040z"/>
<path d="M5805 2518 c-3 -7 -39 -209 -80 -448 -42 -239 -119 -682 -171 -985
-53 -302 -99 -569 -101 -593 l-6 -43 469 4 c442 3 474 5 552 25 163 43 311
131 393 234 136 171 179 450 98 624 -31 64 -101 138 -160 167 l-50 25 59 32
c33 17 85 56 115 87 102 101 147 221 147 386 0 201 -84 344 -250 425 -131 64
-144 65 -598 70 -335 3 -413 1 -417 -10z m682 -540 c36 -36 43 -117 15 -168
-31 -57 -82 -80 -179 -80 -46 0 -83 3 -83 8 0 4 11 67 25 141 14 74 25 135 25
135 0 1 38 -1 85 -5 75 -5 89 -8 112 -31z m-126 -721 c59 -40 70 -150 22 -215
-42 -56 -67 -66 -173 -70 -55 -3 -100 0 -100 4 0 5 11 72 25 148 14 77 25 144
25 148 0 4 38 8 84 8 70 0 88 -4 117 -23z"/>
<path d="M7376 2518 c-5 -15 -357 -2050 -356 -2060 0 -5 132 -8 294 -8 l293 0
16 88 c9 48 36 206 62 352 25 146 48 275 50 288 4 17 12 22 39 22 30 0 34 -3
40 -32 5 -31 106 -707 106 -715 0 -1 146 -3 325 -3 179 0 325 3 325 7 0 4 -43
200 -95 435 -52 235 -95 431 -95 436 0 4 28 23 62 42 119 68 205 192 250 357
27 104 30 308 5 403 -53 198 -189 328 -395 377 -93 22 -920 32 -926 11z m637
-522 c18 -7 40 -22 49 -32 25 -28 37 -94 27 -154 -16 -103 -85 -166 -195 -177
-86 -9 -84 -15 -53 159 16 84 31 168 34 186 6 31 7 32 56 32 27 0 64 -6 82
-14z"/>
<path d="M8955 2508 c-7 -33 -355 -2039 -355 -2049 0 -5 124 -9 275 -9 151 0
275 3 275 6 0 13 151 998 153 1001 3 2 33 -171 132 -757 l41 -245 321 -3 321
-2 11 62 c78 417 348 2005 342 2011 -4 4 -124 6 -266 5 l-259 -3 -82 -520
c-45 -286 -84 -513 -87 -505 -3 8 -20 112 -38 230 -18 118 -53 346 -78 505
l-46 290 -328 3 -327 2 -5 -22z"/>
<path d="M10676 2503 c-7 -35 -356 -2042 -356 -2050 0 -2 201 -3 448 0 408 4
455 6 534 25 322 77 546 270 677 583 127 303 157 725 70 994 -58 181 -165 309
-323 385 -153 74 -215 82 -658 87 l-386 5 -6 -29z m674 -545 c78 -42 110 -137
110 -323 -1 -298 -107 -546 -266 -616 -56 -25 -154 -37 -154 -18 1 8 38 230
84 494 81 469 83 480 107 486 33 9 77 0 119 -23z"/>
<path d="M12000 670 l0 -220 195 0 195 0 0 220 0 220 -195 0 -195 0 0 -220z"/>
</g>
</svg>
