<?xml version="1.0" encoding="utf-8"?>
<!-- Generator: Adobe Illustrator 22.1.0, SVG Export Plug-In . SVG Version: 6.00 Build 0)  -->
<svg version="1.1" id="Ebene_1" xmlns="http://www.w3.org/2000/svg" xmlns:xlink="http://www.w3.org/1999/xlink" x="0px" y="0px"
	 viewBox="0 0 380 109.4" style="enable-background:new 0 0 380 109.4;" xml:space="preserve">
<style type="text/css">
	.st0{fill:#D1DADB;}
	.st1{fill:#D7D7D7;}
</style>
<circle class="st0" cx="40.2" cy="40.2" r="40.2"/>
<g>
	<path d="M359.6,18.8l-12.8,0l-14.6,0v12l0,10.1v10.3l0,9.5l0,8.1V78l2.9,0l0-56.6l24,0c0,0,2.6,0.2,4.8,0.8c2.2,0.7,4,1.8,4,1.8
		s2,1.2,3.7,2.7c1.7,1.6,3,3.6,3,3.6s1.1,1.7,1.8,3.6c0.7,2,0.9,4.3,0.9,4.3v2.2c0,0-0.1,1.2-0.3,2.3c-0.2,1-0.4,1.8-0.4,1.8
		s-0.3,1.3-0.9,2.5c-0.8,1.5-1.9,3-1.9,3s-1,1.2-2.5,2.7c-1.7,1.5-3.8,2.6-3.8,2.6s-1.9,1-3.9,1.6c-2.1,0.6-4.4,0.6-4.4,0.6l-15.7,0
		l0,2.6l10.3,0h5.9c0,0,1.7-0.2,3.3-0.5c1.4-0.3,2.7-0.7,2.7-0.7s2.5-0.9,4.6-2.2c1.8-1.1,3.4-2.7,3.4-2.7s1.4-1.3,2.6-2.8
		c1-1.3,1.8-2.8,1.8-2.8s0.9-1.8,1.5-3.9c0.5-1.7,0.6-3.7,0.6-3.7l0-2.9c0,0-0.1-1.6-0.5-3.2c-0.4-1.6-1-3-1-3s-0.8-1.7-1.9-3.3
		c-1-1.5-2.4-2.8-2.4-2.8s-1.3-1.3-2.8-2.4c-1.5-1.1-3.3-2-3.3-2s-1.9-0.9-4.2-1.5C361.9,19,359.6,18.8,359.6,18.8"/>
	<path d="M309,18.7l-15.3,0l-9.6,0v2.7l23.6,0h7.5h0c0.1,0,2.3,0,4.3,1.2c0.7,0.4,1.6,0.9,2.2,1.5c1.2,1.1,1.8,2.2,1.8,2.2
		s0.8,1.4,1.1,2.6c0.2,1.2,0.2,1.7,0.2,1.7l0,10.4l0,16.3l-27.3-0.1h-2.2c0,0-2.5,0-5-1.3c-0.8-0.4-2.3-1.3-3.3-2.2
		c-0.9-0.8-1.4-1.6-1.4-1.6s-1.1-1.4-1.8-3.1c-0.6-1.5-0.7-3.3-0.7-3.3l0-2.3c0,0,0.1-1.1,0.5-2.4c0.2-0.5,0.4-1.1,0.6-1.7
		c0.7-1.6,2-2.8,2-2.8s1.1-1.4,2.7-2.4c1.2-0.8,2.6-1.4,2.6-1.4s1-0.4,2-0.6c1-0.2,2-0.3,2-0.3h20.3l0-2.6l-20.8,0
		c0,0-2.2,0.2-4.1,0.9c-2.1,0.8-4,2.1-4,2.1s-1.5,1.1-2.6,2.3c-1.3,1.4-2.3,3-2.3,3s-0.7,1.4-1.2,2.8c-0.4,1.4-0.6,2.9-0.6,2.9
		l0,2.7c0,0,0.2,2.1,0.8,3.8c0.8,2,1.5,2.9,1.5,2.9s0.8,1.1,1.5,1.9c0.8,0.9,1.7,1.6,1.7,1.6s1,0.8,2,1.4c1.2,0.7,2.4,1.3,2.4,1.3
		s1.1,0.4,2.3,0.7c1.4,0.3,2.9,0.5,2.9,0.5l13.7,0l18.6,0l0-8.6l0-11.7l0-9.5c0,0-0.2-1.8-0.8-3.3c-0.6-1.5-1.5-2.6-1.5-2.6
		s-1-1.3-2.1-2.3c-1-0.9-2.2-1.5-2.2-1.5s-1.1-0.7-2.5-1.2c-1.2-0.4-2.7-0.6-2.7-0.6L309,18.7z"/>
	<path d="M281.1,18.8h-27.2c0,0-3.7,0.2-6.7,1.2c-3.3,1.2-6.1,3.3-6.1,3.3s-1.8,1.5-3.1,2.9c-1.4,1.6-2.4,3.2-2.4,3.2
		s-1.4,2.4-2,4.6c-0.7,2.3-0.6,4.4-0.6,4.4v2.1c0,0,0.2,2.8,0.9,5.2c0.8,2.4,2.1,4.3,2.1,4.3s1.1,1.8,2.4,3.1c1.4,1.5,3,2.7,3,2.7
		s1.7,1.2,3.4,2c1.8,0.9,3.7,1.4,3.7,1.4s0.9,0.3,2.1,0.5c1.3,0.2,2.8,0.4,2.8,0.4h26.8l0-2.7h-26.8c0,0-2,0-4.5-0.8
		c-1.2-0.3-2.4-1-3.6-1.6c-4.4-2.3-7.1-6.4-8.1-8.8c-1-2.3-1.2-4.9-1.2-4.9s-0.3-2.8,0.3-5.5c0.5-2.2,1.7-4.5,1.7-4.5
		s1.1-1.9,2.8-3.7c1.6-1.6,3.8-3.1,3.8-3.1s1.4-1,3.5-1.7c2-0.7,4.7-1.1,4.7-1.1h1.7l18.7,0l8,0L281.1,18.8z"/>
	<path d="M198.6,0.6l-2.7,0v5.5l0,5.4l0,7.3h-7.3v2.7l7.3,0v1.8l0,2.5V28v3.2l0,4.6l0,12.3c0,0,0.2,2.3,0.7,3.5
		c0.7,1.7,1.4,2.7,1.4,2.7s0.8,1.2,1.7,2c1,1,2.1,1.6,2.1,1.6s1.4,0.9,2.8,1.3c1.7,0.6,3.6,0.7,3.6,0.7H228l9.2,0l0-2.6l-29.1,0
		c0,0-2.4-0.2-4.4-1.4c-1.9-1.1-3-2.7-3-2.7s-0.8-1.1-1.3-2.4c-0.5-1.3-0.6-2.8-0.6-2.8l0-26.6l16,0l5.3,0l0-2.7h-21.2l0-12.9
		L198.6,0.6z"/>
	<path d="M98.6,18.7H84.2v29.5c0,0,0.2,2.5,1.1,4.5c0.9,2,2.4,3.4,2.4,3.4s1.7,1.7,3.8,2.7c0.8,0.4,1.6,0.7,2.4,0.8
		c1.3,0.3,2.4,0.4,2.4,0.4l31.3,0l0-2.6l-31.1,0c0,0-1-0.1-2.2-0.4c-0.6-0.2-1.2-0.4-1.9-0.7c-1.8-0.9-3.1-2.4-3.1-2.4
		s-1-1.1-1.6-2.5c-0.5-1.1-0.7-2.6-0.7-2.6l0-27.4l29.1,0c0,0,2.6,0.2,4.7,1.2c2.6,1.1,3.9,2.6,3.9,2.6s0.7,0.6,1.3,1.4
		c0.7,0.9,1.4,2,1.4,2s0.3,0.7,0.6,1.5c0.3,0.7,0.5,1.6,0.5,1.6s0.1,0.2,0.1,0.5c0.1,0.4,0.1,0.9,0.1,0.9l0,2.2c0,0-0.2,1.9-0.8,3.4
		c-0.7,1.8-1.8,3.1-1.8,3.1s-1.6,2.1-3.6,3.1c-0.8,0.4-1.7,1-2.5,1.3c-1.8,0.6-3.4,0.8-3.4,0.8l-20.6,0l0,2.6l19.8,0c0,0,0,0,0,0
		c0.2,0,2.4,0,4.8-0.8c2.6-0.8,5.1-2.8,5.1-2.8s1.3-1.1,2.3-2.3c1.1-1.3,1.8-2.6,1.8-2.6s0.7-1.4,1.1-2.8c0.3-1.1,0.5-2.5,0.5-2.5
		l0-3.2c0,0-0.2-1.9-1.1-4c-0.7-1.6-1.8-3-1.8-3s-1.1-1.6-2.8-2.9c-1.7-1.3-4-2.4-4-2.4s-1.2-0.5-2.5-0.8c-1.2-0.3-2.6-0.6-2.6-0.6
		L98.6,18.7z"/>
	<path d="M183.9,18.9h-40.6c0,0-2.1,0.2-4.2,1.9c-1.9,1.6-2.2,4.3-2.2,4.3l0,1.1c0,0,0.2,2,2,4c1.7,1.9,4.5,2.2,4.5,2.2l25.5,0
		c0,0,1.4,0,4.1,1.1c2.4,1,3.9,2.6,3.9,2.6s1.6,1.4,2.6,3.1c1.1,1.8,1.3,3.6,1.3,3.6l0.1,0.7l0,2.9c0,0-0.4,2.1-1,3.5
		c-1,2-2.5,3.5-2.5,3.5s-1.5,1.5-3.7,2.7c-2.4,1.3-5.3,1.4-5.3,1.4l-32.2,0l0,2.7l19.6,0l12.9,0c0,0,2.8-0.3,5.6-1.4
		c2.8-1.1,5.1-3.5,5.1-3.5s1.9-1.7,2.8-3.8c1.4-3.1,1.5-4.8,1.5-4.8l-0.1-3.6c0,0-0.4-2.5-1.6-4.6c-1.2-2.2-3.4-4.2-3.4-4.2
		s-1-0.9-2.3-1.7c-1.5-0.9-3.1-1.7-3.1-1.7s-1-0.4-2.2-0.7c-1.3-0.3-3-0.5-3-0.5h-20.7h-4.4c0,0-1.8-0.2-2.8-1.7
		c-0.3-0.5-0.6-1.1-0.7-1.6c-0.1-0.4-0.1-0.9-0.1-0.9s0.1-1.6,1.1-2.5c0.9-0.9,2.3-1.3,2.3-1.3l40.8,0V18.9z"/>
	<path class="st1" d="M15.4,57.5l14-0.1c0,0,2.4-0.1,4.6-1.4c1-0.6,2-1.5,2.7-2.3c0.5-0.6,0.9-1.1,1.2-1.7c0.2-0.4,0.3-0.6,0.5-0.9
		c0.1-0.4,0.2-0.8,0.3-1.1c0.3-1.2,0.3-2.2,0.3-2.2V34.6l0-15.8l2.8,0l0,11.7v10.2v7.6c0,0,0.2,2,1.1,3.7c0.3,0.6,0.7,1.1,1.1,1.6
		c0.8,1,1.7,1.6,1.7,1.6s1.1,0.9,2.6,1.5c0.8,0.3,1.6,0.5,2.2,0.6c0.5,0.1,1,0.1,1,0.1l13.8,0l0-38.6H68v41.2H51
		c0,0-1.4-0.1-2.6-0.4c-1-0.2-1.9-0.6-2.1-0.7c-1.2-0.5-2.4-1.4-3.3-2.3c-1.5-1.4-2.5-3.3-2.5-3.3s-0.3,0.5-0.7,1.1
		c-0.2,0.4-0.5,0.7-0.8,1.1c-0.7,0.9-1.5,1.6-1.5,1.6s-0.5,0.4-1.1,0.9c-0.7,0.5-1.6,0.9-2.6,1.3c-2.1,0.8-4.4,0.9-4.4,0.9l-16.5,0
		V18.8l2.7,0.1L15.4,57.5z"/>
	<path d="M39,18.8l0,15.8v13.1c0,0,0,1-0.3,2.2c-0.1,0.3-0.2,0.8-0.3,1.1c-0.1,0.3-0.3,0.6-0.5,0.9c-0.3,0.6-0.7,1.2-1.2,1.7
		C36.1,54.5,35,55.4,34,56c-2.2,1.3-4.6,1.4-4.6,1.4l-14,0.1l0.1-38.6l-2.7-0.1v41.3l16.5,0c0,0,2.3-0.1,4.4-0.9
		c1-0.4,1.9-0.8,2.6-1.3c0.7-0.4,1.1-0.9,1.1-0.9s0.8-0.7,1.5-1.6c0.3-0.4,0.6-0.7,0.8-1.1c0.4-0.6,0.7-1.1,0.7-1.1s1,1.9,2.5,3.3
		c0.9,0.9,2.1,1.8,3.3,2.3c0.2,0.1,1.2,0.5,2.1,0.7c1.3,0.3,2.6,0.4,2.6,0.4h17V18.8h-2.8l0,38.6l-13.8,0c0,0-0.5-0.1-1-0.1
		c-0.6-0.1-1.4-0.3-2.2-0.6c-1.4-0.5-2.6-1.5-2.6-1.5s-0.8-0.6-1.6-1.6c-0.4-0.5-0.8-1-1.1-1.6c-0.9-1.6-1.1-3.7-1.1-3.7v-7.6V30.5
		l0-11.7L39,18.8z"/>
	<path d="M39,18.8l0,15.8L39,18.8l2.8,0l0,11.7v10.2v7.6c0,0,0.2,2,1.1,3.7c0.3,0.6,0.7,1.1,1.1,1.6c0.8,1,1.7,1.6,1.7,1.6
		s1.1,0.9,2.6,1.5c0.8,0.3,1.6,0.5,2.2,0.6c0.5,0.1,1,0.1,1,0.1l13.8,0l-13.8,0c0,0-0.5-0.1-1-0.1c-0.6-0.1-1.4-0.3-2.2-0.6
		c-1.4-0.5-2.6-1.5-2.6-1.5s-0.8-0.6-1.7-1.6c-0.4-0.5-0.8-1-1.1-1.6c-0.9-1.6-1.1-3.7-1.1-3.7v-7.6V30.5l0-11.7L39,18.8z
		 M12.8,18.8L12.8,18.8l2.7,0.1L12.8,18.8z M68,18.8h-2.8H68v41.2V18.8z M39,47.7c0,0,0,1-0.3,2.2c-0.1,0.3-0.2,0.8-0.3,1.1
		c-0.1,0.3-0.3,0.6-0.5,0.9c-0.3,0.6-0.7,1.2-1.2,1.7C36.1,54.5,35,55.4,34,56c-2.2,1.3-4.6,1.4-4.6,1.4l-14,0.1l14-0.1
		c0,0,2.4-0.1,4.6-1.4c1-0.6,2-1.5,2.7-2.4c0.5-0.6,0.9-1.1,1.2-1.7c0.2-0.4,0.3-0.6,0.5-0.9c0.1-0.4,0.2-0.8,0.3-1.1
		C39,48.7,39,47.7,39,47.7"/>
</g>
<g>
	<path d="M19.5,95.8c-1.6,0-2.9,0.5-3.8,1.6c-0.9,1.1-1.4,2.6-1.4,4.4c0,1.9,0.5,3.4,1.4,4.5c0.9,1.1,2.2,1.6,3.9,1.6
		c1,0,2.2-0.2,3.5-0.6v1.5c-1,0.4-2.3,0.6-3.8,0.6c-2.2,0-3.8-0.7-5-2c-1.2-1.3-1.8-3.2-1.8-5.6c0-1.5,0.3-2.9,0.9-4
		c0.6-1.1,1.4-2,2.5-2.6c1.1-0.6,2.3-0.9,3.8-0.9c1.5,0,2.9,0.3,4.1,0.8l-0.7,1.5C21.7,96.1,20.6,95.8,19.5,95.8z"/>
	<path d="M38.9,101.8c0,2.4-0.6,4.2-1.8,5.6c-1.2,1.4-2.9,2-5,2c-2.2,0-3.8-0.7-5-2c-1.2-1.3-1.8-3.2-1.8-5.6c0-2.4,0.6-4.3,1.8-5.6
		c1.2-1.3,2.9-2,5-2c2.1,0,3.8,0.7,5,2C38.3,97.6,38.9,99.5,38.9,101.8z M27.2,101.8c0,2,0.4,3.5,1.3,4.5c0.9,1,2.1,1.5,3.7,1.5
		c1.6,0,2.9-0.5,3.7-1.5c0.8-1,1.3-2.5,1.3-4.5c0-2-0.4-3.5-1.2-4.5c-0.8-1-2.1-1.5-3.7-1.5c-1.6,0-2.9,0.5-3.7,1.5
		C27.6,98.4,27.2,99.9,27.2,101.8z"/>
	<path d="M51.4,109.2l-1.8-4.7h-5.9l-1.8,4.7h-1.7l5.8-14.8h1.4l5.8,14.8H51.4z M49,103l-1.7-4.6c-0.2-0.6-0.5-1.3-0.7-2.1
		c-0.1,0.6-0.4,1.4-0.6,2.1l-1.7,4.6H49z"/>
	<path d="M61.4,95.8c-1.6,0-2.9,0.5-3.8,1.6c-0.9,1.1-1.4,2.6-1.4,4.4c0,1.9,0.5,3.4,1.4,4.5c0.9,1.1,2.2,1.6,3.9,1.6
		c1,0,2.2-0.2,3.5-0.6v1.5c-1,0.4-2.3,0.6-3.8,0.6c-2.2,0-3.8-0.7-5-2c-1.2-1.3-1.8-3.2-1.8-5.6c0-1.5,0.3-2.9,0.9-4
		c0.6-1.1,1.4-2,2.5-2.6c1.1-0.6,2.3-0.9,3.8-0.9c1.5,0,2.9,0.3,4.1,0.8l-0.7,1.5C63.6,96.1,62.5,95.8,61.4,95.8z"/>
	<path d="M79.2,109.2h-1.7v-6.9h-7.8v6.9H68V94.5h1.7v6.3h7.8v-6.3h1.7V109.2z"/>
	<path d="M83.1,109.2V94.5h1.7v14.7H83.1z"/>
	<path d="M100.3,109.2h-2l-8.1-12.4h-0.1c0.1,1.5,0.2,2.8,0.2,4v8.4h-1.6V94.5h1.9l8,12.3h0.1c0-0.2,0-0.8-0.1-1.8
		c0-1-0.1-1.7-0.1-2.1v-8.5h1.6V109.2z"/>
	<path d="M110.7,101.5h5v7.2c-0.8,0.2-1.6,0.4-2.4,0.6c-0.8,0.1-1.7,0.2-2.8,0.2c-2.2,0-4-0.7-5.2-2c-1.2-1.3-1.9-3.2-1.9-5.6
		c0-1.5,0.3-2.9,0.9-4c0.6-1.2,1.5-2,2.7-2.6c1.2-0.6,2.5-0.9,4.1-0.9c1.6,0,3,0.3,4.4,0.9l-0.7,1.5c-1.3-0.6-2.6-0.8-3.8-0.8
		c-1.8,0-3.2,0.5-4.2,1.6c-1,1.1-1.5,2.6-1.5,4.4c0,2,0.5,3.5,1.5,4.5c1,1,2.4,1.5,4.3,1.5c1,0,2-0.1,3-0.4V103h-3.3V101.5z"/>
	<path d="M123.3,104.5v-1.5h8.7v1.5H123.3z"/>
	<path d="M144.5,109.2h-1.7V96h-4.7v-1.5h11.1V96h-4.7V109.2z"/>
	<path d="M153,103.1v6.1h-1.7V94.5h4c1.8,0,3.1,0.3,4,1c0.9,0.7,1.3,1.7,1.3,3.1c0,2-1,3.3-3,4l4,6.6h-2l-3.6-6.1H153z M153,101.6
		h2.4c1.2,0,2.1-0.2,2.7-0.7c0.6-0.5,0.8-1.2,0.8-2.2c0-1-0.3-1.7-0.9-2.1c-0.6-0.4-1.5-0.6-2.8-0.6H153V101.6z"/>
	<path d="M173.2,109.2l-1.8-4.7h-5.9l-1.8,4.7h-1.7l5.8-14.8h1.4l5.8,14.8H173.2z M170.8,103l-1.7-4.6c-0.2-0.6-0.5-1.3-0.7-2.1
		c-0.1,0.6-0.4,1.4-0.6,2.1l-1.7,4.6H170.8z"/>
	<path d="M176.9,109.2V94.5h1.7v14.7H176.9z"/>
	<path d="M194.1,109.2h-2l-8.1-12.4H184c0.1,1.5,0.2,2.8,0.2,4v8.4h-1.6V94.5h1.9l8,12.3h0.1c0-0.2,0-0.8-0.1-1.8c0-1-0.1-1.7,0-2.1
		v-8.5h1.6V109.2z"/>
	<path d="M198,109.2V94.5h1.7v14.7H198z"/>
	<path d="M215.2,109.2h-2l-8.1-12.4h-0.1c0.1,1.5,0.2,2.8,0.2,4v8.4h-1.6V94.5h1.9l8,12.3h0.1c0-0.2,0-0.8-0.1-1.8
		c0-1-0.1-1.7,0-2.1v-8.5h1.6V109.2z"/>
	<path d="M225.7,101.5h5v7.2c-0.8,0.2-1.6,0.4-2.4,0.6c-0.8,0.1-1.7,0.2-2.8,0.2c-2.2,0-4-0.7-5.2-2c-1.2-1.3-1.9-3.2-1.9-5.6
		c0-1.5,0.3-2.9,0.9-4c0.6-1.2,1.5-2,2.7-2.6c1.2-0.6,2.5-0.9,4.1-0.9c1.6,0,3,0.3,4.4,0.9l-0.7,1.5c-1.3-0.6-2.6-0.8-3.8-0.8
		c-1.8,0-3.2,0.5-4.2,1.6c-1,1.1-1.5,2.6-1.5,4.4c0,2,0.5,3.5,1.5,4.5c1,1,2.4,1.5,4.3,1.5c1,0,2-0.1,3-0.4V103h-3.3V101.5z"/>
	<path d="M238.2,104.5v-1.5h8.7v1.5H238.2z"/>
	<path d="M261.2,95.8c-1.6,0-2.9,0.5-3.8,1.6c-0.9,1.1-1.4,2.6-1.4,4.4c0,1.9,0.5,3.4,1.4,4.5c0.9,1.1,2.2,1.6,3.9,1.6
		c1,0,2.2-0.2,3.5-0.6v1.5c-1,0.4-2.3,0.6-3.8,0.6c-2.2,0-3.8-0.7-5-2c-1.2-1.3-1.8-3.2-1.8-5.6c0-1.5,0.3-2.9,0.9-4
		c0.6-1.1,1.4-2,2.5-2.6c1.1-0.6,2.3-0.9,3.8-0.9c1.5,0,2.9,0.3,4.1,0.8l-0.7,1.5C263.4,96.1,262.3,95.8,261.2,95.8z"/>
	<path d="M280.6,101.8c0,2.4-0.6,4.2-1.8,5.6c-1.2,1.4-2.9,2-5,2c-2.2,0-3.8-0.7-5-2c-1.2-1.3-1.8-3.2-1.8-5.6
		c0-2.4,0.6-4.3,1.8-5.6c1.2-1.3,2.9-2,5-2c2.1,0,3.8,0.7,5,2C280,97.6,280.6,99.5,280.6,101.8z M268.8,101.8c0,2,0.4,3.5,1.3,4.5
		c0.9,1,2.1,1.5,3.7,1.5c1.6,0,2.9-0.5,3.7-1.5s1.3-2.5,1.3-4.5c0-2-0.4-3.5-1.2-4.5c-0.8-1-2.1-1.5-3.7-1.5c-1.6,0-2.9,0.5-3.7,1.5
		C269.3,98.4,268.8,99.9,268.8,101.8z"/>
	<path d="M295.3,109.2h-2l-8.1-12.4h-0.1c0.1,1.5,0.2,2.8,0.2,4v8.4h-1.6V94.5h1.9l8,12.3h0.1c0-0.2,0-0.8-0.1-1.8
		c0-1-0.1-1.7,0-2.1v-8.5h1.6V109.2z"/>
	<path d="M307.6,105.3c0,1.3-0.5,2.3-1.4,3s-2.2,1.1-3.8,1.1c-1.7,0-3.1-0.2-4-0.7v-1.7c0.6,0.3,1.3,0.5,2,0.6
		c0.7,0.1,1.4,0.2,2.1,0.2c1.1,0,2-0.2,2.6-0.7c0.6-0.4,0.9-1,0.9-1.8c0-0.5-0.1-0.9-0.3-1.3c-0.2-0.3-0.5-0.6-1-0.9
		c-0.5-0.3-1.2-0.6-2.2-0.9c-1.4-0.5-2.4-1.1-2.9-1.7c-0.6-0.7-0.9-1.6-0.9-2.6c0-1.1,0.4-2,1.3-2.7s2-1,3.4-1c1.5,0,2.8,0.3,4,0.8
		l-0.5,1.5c-1.2-0.5-2.4-0.8-3.6-0.8c-0.9,0-1.6,0.2-2.1,0.6s-0.8,0.9-0.8,1.6c0,0.5,0.1,0.9,0.3,1.3c0.2,0.3,0.5,0.6,1,0.9
		c0.4,0.3,1.1,0.6,2.1,0.9c1.5,0.6,2.6,1.1,3.2,1.8C307.3,103.5,307.6,104.3,307.6,105.3z"/>
	<path d="M321.6,94.5v9.5c0,1.7-0.5,3-1.5,4c-1,1-2.4,1.4-4.2,1.4c-1.8,0-3.1-0.5-4.1-1.5c-1-1-1.5-2.3-1.5-4v-9.5h1.7v9.6
		c0,1.2,0.3,2.2,1,2.8c0.7,0.7,1.7,1,3,1c1.2,0,2.2-0.3,2.9-1c0.7-0.7,1-1.6,1-2.8v-9.6H321.6z"/>
	<path d="M325.4,109.2V94.5h1.7v13.2h6.5v1.6H325.4z"/>
	<path d="M340.6,109.2h-1.7V96h-4.7v-1.5h11.1V96h-4.7V109.2z"/>
	<path d="M347.4,109.2V94.5h1.7v14.7H347.4z"/>
	<path d="M364.5,109.2h-2l-8.1-12.4h-0.1c0.1,1.5,0.2,2.8,0.2,4v8.4H353V94.5h1.9l8,12.3h0.1c0-0.2,0-0.8-0.1-1.8c0-1-0.1-1.7,0-2.1
		v-8.5h1.6V109.2z"/>
	<path d="M375,101.5h5v7.2c-0.8,0.2-1.6,0.4-2.4,0.6c-0.8,0.1-1.7,0.2-2.8,0.2c-2.2,0-4-0.7-5.2-2c-1.2-1.3-1.9-3.2-1.9-5.6
		c0-1.5,0.3-2.9,0.9-4c0.6-1.2,1.5-2,2.7-2.6c1.2-0.6,2.5-0.9,4.1-0.9c1.6,0,3,0.3,4.4,0.9l-0.7,1.5c-1.3-0.6-2.6-0.8-3.8-0.8
		c-1.8,0-3.2,0.5-4.2,1.6c-1,1.1-1.5,2.6-1.5,4.4c0,2,0.5,3.5,1.5,4.5c1,1,2.4,1.5,4.3,1.5c1,0,2-0.1,3-0.4V103H375V101.5z"/>
</g>
</svg>
